<svg width="49" height="49" viewBox="0 0 49 49" fill="none" xmlns="http://www.w3.org/2000/svg">
<path d="M32.5 10.6201H44.5M38.5 4.62012V16.6201M42.5 23.6201V38.6201C42.5 40.8278 40.7077 42.6201 38.5 42.6201H10.5C8.29234 42.6201 6.5 40.8278 6.5 38.6201V10.6201C6.5 8.41246 8.29234 6.62012 10.5 6.62012H25.5" stroke="#888888" stroke-width="4" stroke-linecap="round" stroke-linejoin="round"/>
<path d="M42.5 30.6201L36.328 24.4481C34.766 22.8866 32.234 22.8866 30.672 24.4481L12.5 42.6201" stroke="#888888" stroke-width="4" stroke-linecap="round" stroke-linejoin="round"/>
<path d="M18.5 14.6201C16.2923 14.6201 14.5 16.4125 14.5 18.6201C14.5 20.8278 16.2923 22.6201 18.5 22.6201C20.7077 22.6201 22.5 20.8278 22.5 18.6201C22.5 16.4125 20.7077 14.6201 18.5 14.6201" stroke="#888888" stroke-width="4" stroke-linecap="round" stroke-linejoin="round"/>
</svg>
