<svg width="21" height="21" viewBox="0 0 21 21" fill="none" xmlns="http://www.w3.org/2000/svg">
<path d="M10.28 17.56C11.53 17.56 12.5717 18.4433 13.6133 18.4433C16.1133 18.4433 18.6133 11.7767 18.6133 8.25998C18.5542 6.01318 16.6939 4.23468 14.4467 4.27665C12.5967 4.27665 11.1133 5.47665 10.28 5.94332C9.44667 5.47665 7.96333 4.27665 6.11333 4.27665C3.86435 4.23008 2.00127 6.01118 1.94667 8.25998C1.94667 11.7767 4.44667 18.4433 6.94667 18.4433C7.98833 18.4433 9.03 17.56 10.28 17.56" stroke="#FAFAFA" stroke-width="1.66667" stroke-linecap="round" stroke-linejoin="round"/>
<path d="M8.61333 1.77665C9.44667 2.19332 10.28 3.44332 10.28 5.94332" stroke="#FAFAFA" stroke-width="1.66667" stroke-linecap="round" stroke-linejoin="round"/>
</svg>
