<svg width="20" height="21" viewBox="0 0 20 21" fill="none" xmlns="http://www.w3.org/2000/svg">
<path d="M10 6.78678C8.16028 6.78678 6.66667 8.2804 6.66667 10.1201C6.66667 11.9598 8.16028 13.4535 10 13.4535C11.8397 13.4535 13.3333 11.9598 13.3333 10.1201C13.3333 8.2804 11.8397 6.78678 10 6.78678" stroke="#888888" stroke-width="1.66667" stroke-linecap="round" stroke-linejoin="round"/>
<path d="M13.3333 6.78678V10.9535C13.3333 12.3332 14.4535 13.4535 15.8333 13.4535C17.2131 13.4535 18.3333 12.3332 18.3333 10.9535V10.1201C18.3333 6.2553 15.676 2.89766 11.9146 2.00971C8.15318 1.12176 4.27484 2.93654 2.54644 6.39334C0.818043 9.85013 1.69322 14.0417 4.66044 16.518C7.62765 18.9944 11.9081 19.1057 15 16.7868" stroke="#888888" stroke-width="1.66667" stroke-linecap="round" stroke-linejoin="round"/>
</svg>
