<svg width="24" height="25" viewBox="0 0 24 25" fill="none" xmlns="http://www.w3.org/2000/svg">
<path d="M16 6.5L7.586 15.086C7.08065 15.5914 6.88329 16.3279 7.06826 17.0182C7.25323 17.7086 7.79243 18.2478 8.48276 18.4327C9.17308 18.6177 9.90965 18.4204 10.415 17.915L18.829 9.329C19.8395 8.31847 20.2342 6.8456 19.8643 5.4652C19.4944 4.08479 18.4162 3.00658 17.0358 2.6367C15.6554 2.26682 14.1825 2.66147 13.172 3.672L4.793 12.223C3.25666 13.7345 2.64904 15.9539 3.2012 18.0372C3.75336 20.1205 5.38047 21.7476 7.46377 22.2998C9.54708 22.852 11.7665 22.2443 13.278 20.708L21.657 12.157" stroke="#BBBBBB" stroke-width="2" stroke-linecap="round" stroke-linejoin="round"/>
</svg>
