<svg width="29" height="29" viewBox="0 0 29 29" fill="none" xmlns="http://www.w3.org/2000/svg">
<path d="M17.4167 4.77665H11.5833L8.66667 8.27665H5.16667C3.87886 8.27665 2.83333 9.32218 2.83333 10.61V21.11C2.83333 22.3978 3.87886 23.4433 5.16667 23.4433H23.8333C25.1211 23.4433 26.1667 22.3978 26.1667 21.11V10.61C26.1667 9.32218 25.1211 8.27665 23.8333 8.27665H20.3333" stroke="#666666" stroke-width="2.33333" stroke-linecap="round" stroke-linejoin="round"/>
<path d="M14.5 11.7767C12.5683 11.7767 11 13.3449 11 15.2767C11 17.2084 12.5683 18.7767 14.5 18.7767C16.4317 18.7767 18 17.2084 18 15.2767C18 13.3449 16.4317 11.7767 14.5 11.7767" stroke="#666666" stroke-width="2.33333" stroke-linecap="round" stroke-linejoin="round"/>
</svg>
