<svg width="21" height="21" viewBox="0 0 21 21" fill="none" xmlns="http://www.w3.org/2000/svg">
<path d="M10.265 1.77665C5.66572 1.77665 1.93168 5.51069 1.93168 10.11C1.93168 14.7093 5.66572 18.4433 10.265 18.4433C14.8643 18.4433 18.5983 14.7093 18.5983 10.11C18.5983 5.51069 14.8643 1.77665 10.265 1.77665" stroke="#FAFAFA" stroke-width="1.66667" stroke-linecap="round" stroke-linejoin="round"/>
<path d="M10.265 6.77665C8.4253 6.77665 6.93168 8.27027 6.93168 10.11C6.93168 11.9497 8.4253 13.4433 10.265 13.4433C12.1047 13.4433 13.5983 11.9497 13.5983 10.11C13.5983 8.27027 12.1047 6.77665 10.265 6.77665" stroke="#FAFAFA" stroke-width="1.66667" stroke-linecap="round" stroke-linejoin="round"/>
<path d="M17.9067 6.77665H10.265M3.55668 5.15999L7.38168 11.7767M9.33168 18.3933L13.1483 11.7767" stroke="#FAFAFA" stroke-width="1.66667" stroke-linecap="round" stroke-linejoin="round"/>
</svg>
