<svg width="20" height="21" viewBox="0 0 20 21" fill="none" xmlns="http://www.w3.org/2000/svg">
<path d="M5.83333 1.78678H14.1667C16.4663 1.78678 18.3333 3.6538 18.3333 5.95345V14.2868C18.3333 16.5864 16.4663 18.4535 14.1667 18.4535H5.83333C3.53369 18.4535 1.66667 16.5864 1.66667 14.2868V5.95345C1.66667 3.6538 3.53369 1.78678 5.83333 1.78678" stroke="#DB5B27" stroke-width="1.66667" stroke-linecap="round" stroke-linejoin="round"/>
<path d="M13.3333 9.59512C13.5443 11.0176 12.8192 12.415 11.5347 13.0615C10.2502 13.708 8.69587 13.4579 7.67903 12.4411C6.66219 11.4242 6.41208 9.86993 7.05861 8.58543C7.70513 7.30093 9.10252 6.57585 10.525 6.78678C11.9775 7.00217 13.1179 8.14264 13.3333 9.59512M14.5833 5.53678H14.5917" stroke="#DB5B27" stroke-width="1.66667" stroke-linecap="round" stroke-linejoin="round"/>
</svg>
