<svg width="20" height="21" viewBox="0 0 20 21" fill="none" xmlns="http://www.w3.org/2000/svg">
<path d="M13.3333 6.78678C16.0929 6.78678 18.3333 9.02721 18.3333 11.7868V17.6201H15V11.7868C15 10.8669 14.2532 10.1201 13.3333 10.1201C12.4135 10.1201 11.6667 10.8669 11.6667 11.7868V17.6201H8.33333V11.7868C8.33333 9.02721 10.5738 6.78678 13.3333 6.78678M1.66667 7.62012H5V17.6201H1.66667" stroke="#DB5B27" stroke-width="1.66667" stroke-linecap="round" stroke-linejoin="round"/>
<path d="M3.33333 1.78678C2.41347 1.78678 1.66667 2.53359 1.66667 3.45345C1.66667 4.37331 2.41347 5.12012 3.33333 5.12012C4.25319 5.12012 5 4.37331 5 3.45345C5 2.53359 4.25319 1.78678 3.33333 1.78678" stroke="#DB5B27" stroke-width="1.66667" stroke-linecap="round" stroke-linejoin="round"/>
</svg>
