<svg width="21" height="21" viewBox="0 0 21 21" fill="none" xmlns="http://www.w3.org/2000/svg">
<path d="M2.38667 10.34H4.88667M16.5533 10.34H19.0533M10.72 2.00663V4.50663M10.72 16.1733V18.6733" stroke="#FAFAFA" stroke-width="1.66667" stroke-linecap="round" stroke-linejoin="round"/>
<path d="M10.72 4.50663C7.5005 4.50663 4.88667 7.12046 4.88667 10.34C4.88667 13.5595 7.5005 16.1733 10.72 16.1733C13.9395 16.1733 16.5533 13.5595 16.5533 10.34C16.5533 7.12046 13.9395 4.50663 10.72 4.50663" stroke="#FAFAFA" stroke-width="1.66667" stroke-linecap="round" stroke-linejoin="round"/>
<path d="M10.72 7.83997C9.34021 7.83997 8.22 8.96018 8.22 10.34C8.22 11.7198 9.34021 12.84 10.72 12.84C12.0998 12.84 13.22 11.7198 13.22 10.34C13.22 8.96018 12.0998 7.83997 10.72 7.83997" stroke="#FAFAFA" stroke-width="1.66667" stroke-linecap="round" stroke-linejoin="round"/>
</svg>
