<svg width="24" height="24" viewBox="0 0 24 24" fill="none" xmlns="http://www.w3.org/2000/svg">
<path d="M12 3H5C3.89617 3 3 3.89617 3 5V19C3 20.1038 3.89617 21 5 21H19C20.1038 21 21 20.1038 21 19V12" stroke="#FAFAFA" stroke-width="2" stroke-linecap="round" stroke-linejoin="round"/>
<path d="M18.375 2.625C19.2029 1.79713 20.5471 1.79713 21.375 2.625C22.2029 3.45287 22.2029 4.79713 21.375 5.625L12.362 14.639C12.1245 14.8762 11.8312 15.0499 11.509 15.144L8.636 15.984C8.46073 16.0351 8.27154 15.9866 8.14245 15.8576C8.01335 15.7285 7.96488 15.5393 8.016 15.364L8.856 12.491C8.95053 12.1691 9.12453 11.8761 9.362 11.639" stroke="#FAFAFA" stroke-width="2" stroke-linecap="round" stroke-linejoin="round"/>
</svg>
