<svg width="78" height="48" viewBox="0 0 78 48" fill="none" xmlns="http://www.w3.org/2000/svg">
<g clip-path="url(#clip0_145_1875)">
<path d="M76.3259 0.109985C70.5415 8.44864 55.1382 3.47233 45.451 2.06093C35.7638 0.648595 30.1811 3.06907 26.8842 7.64212C23.5892 12.2152 23.9262 22.1678 23.9262 22.1678C23.1186 20.3335 21.9048 17.6881 20.2923 14.5694C15.8385 5.95535 13.549 1.63807 10.4893 1.10786C5.89729 0.313481 1.25117 6.63584 0 8.43277C2.33613 7.7476 4.93091 7.18006 6.73016 9.06566C7.88889 10.2792 8.12885 11.8866 8.18674 12.8714C8.76004 22.6961 2.47993 31.494 5.47712 34.9684C6.61811 36.292 8.95051 36.6626 10.1055 35.9205C10.9104 35.4034 11.0224 34.4223 11.2633 31.4651C11.4986 28.5742 11.8086 24.4006 12.4743 20.6509C12.9365 18.0484 13.3557 16.8433 13.8543 16.8218C14.1363 16.8097 14.4024 17.1597 14.6592 17.6871C15.2866 18.9772 15.916 20.2654 16.5556 21.5489C17.4855 23.4158 18.4314 25.2781 19.5369 27.0489C22.2512 31.397 26.0065 34.7434 30.9608 36.2659C33.789 37.135 36.7834 37.4495 39.7339 37.3002C43.6078 37.1042 47.4491 35.8599 50.4538 33.3563C51.2344 32.7057 51.9533 31.9785 52.5826 31.1813C55.6088 27.3466 54.8684 22.7073 50.6312 18.9408C46.394 15.1743 48.9486 13.158 52.0439 11.7456C55.1391 10.3333 62.3361 12.0798 62.3361 12.0808C62.4407 12.1088 60.1643 19.71 60.0131 20.2131C59.423 22.1808 58.8273 24.1477 58.226 26.1126C57.4155 28.8654 55.7488 32.7663 57.775 35.3212C58.3249 35.9513 59.1522 36.3705 59.9981 36.2986C61.9571 36.1334 63.0233 32.7421 63.6471 30.7407C65.7199 24.0814 67.4967 17.6843 68.7264 13.0917C70.5434 12.4859 72.2951 11.628 73.9561 10.6572C75.2605 9.89551 76.4911 8.93404 77.2736 7.64212C78.7432 5.21324 77.7582 2.31857 76.3268 0.109985L76.3259 0.109985ZM42.155 16.5866C42.6275 21.6982 49.5537 22.7736 47.605 27.0115C45.6536 31.2476 40.8777 31.5155 34.4883 30.372C28.098 29.2304 28.7703 22.2369 31.7965 20.958C34.8226 19.681 38.8609 20.958 38.5901 16.6529C38.3221 12.3505 29.577 18.8054 30.1158 14.5694C30.6527 10.3333 33.6807 8.18073 37.8515 7.57584C42.0224 6.97096 49.2194 8.38236 49.2194 8.38236C49.2194 8.38236 41.6853 11.4749 42.155 16.5857V16.5866Z" fill="#ED5000"/>
<path d="M53.5023 36.0326C52.2437 42.8273 41.5779 48.3767 32.422 46.8571C26.324 45.8452 22.3034 41.9302 20.5144 39.8943C22.2287 40.9818 25.0952 42.5015 28.9402 43.2389C33.4323 44.1005 37.1475 43.49 39.2287 42.9869C37.9925 43.1521 29.8721 44.1005 23.1176 38.1945C19.07 34.6557 17.3763 30.2862 16.6909 26.8314C16.9682 27.3178 17.2549 27.8022 17.5565 28.2839C19.0915 30.7426 20.8963 32.8392 22.9206 34.5148C25.1158 36.3322 27.5901 37.6718 30.2745 38.496C32.8067 39.2745 35.5163 39.6684 38.3277 39.6684C38.8319 39.6684 39.3445 39.6563 39.8515 39.6302C42.0747 39.5182 44.211 39.1009 46.2035 38.3915C48.351 37.626 50.2838 36.5348 51.9477 35.1486C52.5322 34.6613 53.0793 34.1423 53.5845 33.5962C53.6685 34.3598 53.6601 35.1803 53.5023 36.0326Z" fill="#ED5000"/>
</g>
<defs>
<clipPath id="clip0_145_1875">
<rect width="78" height="47" fill="white" transform="translate(0 0.109985)"/>
</clipPath>
</defs>
</svg>
