<svg width="21" height="21" viewBox="0 0 21 21" fill="none" xmlns="http://www.w3.org/2000/svg">
<path d="M17.3387 8.6733C17.3387 12.8341 12.7228 17.1675 11.1728 18.5058C10.8762 18.7289 10.4678 18.7289 10.1712 18.5058C8.62117 17.1675 4.00533 12.8341 4.00533 8.6733C4.00533 4.99387 6.99257 2.00663 10.672 2.00663C14.3514 2.00663 17.3387 4.99387 17.3387 8.6733" stroke="#999999" stroke-width="1.66667" stroke-linecap="round" stroke-linejoin="round"/>
<path d="M10.672 6.1733C9.29221 6.1733 8.172 7.29351 8.172 8.6733C8.172 10.0531 9.29221 11.1733 10.672 11.1733C12.0518 11.1733 13.172 10.0531 13.172 8.6733C13.172 7.29351 12.0518 6.1733 10.672 6.1733" stroke="#999999" stroke-width="1.66667" stroke-linecap="round" stroke-linejoin="round"/>
</svg>
