<svg width="24" height="25" viewBox="0 0 24 25" fill="none" xmlns="http://www.w3.org/2000/svg">
<path d="M15.477 13.5399L16.992 22.0659C17.0267 22.2715 16.9303 22.4771 16.7499 22.5817C16.5696 22.6863 16.3432 22.6681 16.182 22.5359L12.602 19.8489C12.2471 19.5837 11.7599 19.5837 11.405 19.8489L7.819 22.5349C7.65789 22.6668 7.43188 22.6851 7.25166 22.5808C7.07145 22.4764 6.97478 22.2713 7.009 22.0659L8.523 13.5399" stroke="white" stroke-width="2" stroke-linecap="round" stroke-linejoin="round"/>
<path d="M12 2.6499C8.68851 2.6499 6 5.33841 6 8.6499C6 11.9614 8.68851 14.6499 12 14.6499C15.3115 14.6499 18 11.9614 18 8.6499C18 5.33841 15.3115 2.6499 12 2.6499" stroke="white" stroke-width="2" stroke-linecap="round" stroke-linejoin="round"/>
</svg>
