<svg width="24" height="25" viewBox="0 0 24 25" fill="none" xmlns="http://www.w3.org/2000/svg">
<path d="M4 3.39H7C7.55192 3.39 8 3.83808 8 4.39V7.39C8 7.94191 7.55192 8.39 7 8.39H4C3.44808 8.39 3 7.94191 3 7.39V4.39C3 3.83808 3.44808 3.39 4 3.39" stroke="#DB5B27" stroke-width="2" stroke-linecap="round" stroke-linejoin="round"/>
<path d="M17 3.39H20C20.5519 3.39 21 3.83808 21 4.39V7.39C21 7.94191 20.5519 8.39 20 8.39H17C16.4481 8.39 16 7.94191 16 7.39V4.39C16 3.83808 16.4481 3.39 17 3.39" stroke="#DB5B27" stroke-width="2" stroke-linecap="round" stroke-linejoin="round"/>
<path d="M4 16.39H7C7.55192 16.39 8 16.8381 8 17.39V20.39C8 20.9419 7.55192 21.39 7 21.39H4C3.44808 21.39 3 20.9419 3 20.39V17.39C3 16.8381 3.44808 16.39 4 16.39" stroke="#DB5B27" stroke-width="2" stroke-linecap="round" stroke-linejoin="round"/>
<path d="M21 16.39H18C16.8962 16.39 16 17.2862 16 18.39V21.39M21 21.39V21.4M12 7.39V10.39C12 11.4938 11.1038 12.39 10 12.39H7M3 12.39H3.01M12 3.39H12.01M12 16.39V16.4M16 12.39H17M21 12.39V12.4M12 21.39V20.39" stroke="#DB5B27" stroke-width="2" stroke-linecap="round" stroke-linejoin="round"/>
</svg>
