<svg width="20" height="21" viewBox="0 0 20 21" fill="none" xmlns="http://www.w3.org/2000/svg">
<path d="M3.33333 19.2133V4.21334C3.33333 3.95104 3.45683 3.70405 3.66667 3.54667C4.53215 2.89756 5.58482 2.54667 6.66667 2.54667C9.16667 2.54667 10.8333 4.21334 12.7775 4.21334L15.3333 3.54667C15.5858 3.35729 15.9237 3.32682 16.206 3.46798C16.4883 3.60914 16.6667 3.89769 16.6667 4.21334V12.5467C16.6667 12.809 16.5432 13.056 16.3333 13.2133C15.4679 13.8624 14.4152 14.2133 13.3333 14.2133C10.8333 14.2133 9.16667 12.5467 6.66667 12.5467C5.43676 12.5467 4.25002 13 3.33333 13.82" stroke="#FAFAFA" stroke-width="1.66667" stroke-linecap="round" stroke-linejoin="round"/>
</svg>
