<svg width="24" height="25" viewBox="0 0 24 25" fill="none" xmlns="http://www.w3.org/2000/svg">
<path d="M12.22 2.56006H11.78C10.6762 2.56006 9.78 3.45623 9.78 4.56006V4.74006C9.77927 5.45386 9.39817 6.11316 8.78 6.47006L8.35 6.72006C7.7312 7.07732 6.9688 7.07732 6.35 6.72006L6.2 6.64006C5.24441 6.08882 4.02293 6.41545 3.47 7.37006L3.25 7.75006C2.69877 8.70565 3.02539 9.92713 3.98 10.4801L4.13 10.5801C4.74509 10.9352 5.12571 11.5898 5.13 12.3001V12.8101C5.13285 13.5274 4.75127 14.1914 4.13 14.5501L3.98 14.6401C3.02539 15.193 2.69877 16.4145 3.25 17.3701L3.47 17.7501C4.02293 18.7047 5.24441 19.0313 6.2 18.4801L6.35 18.4001C6.9688 18.0428 7.7312 18.0428 8.35 18.4001L8.78 18.6501C9.39817 19.007 9.77927 19.6663 9.78 20.3801V20.5601C9.78 21.6639 10.6762 22.5601 11.78 22.5601H12.22C13.3238 22.5601 14.22 21.6639 14.22 20.5601V20.3801C14.2207 19.6663 14.6018 19.007 15.22 18.6501L15.65 18.4001C16.2688 18.0428 17.0312 18.0428 17.65 18.4001L17.8 18.4801C18.7556 19.0313 19.9771 18.7047 20.53 17.7501L20.75 17.3601C21.3012 16.4045 20.9746 15.183 20.02 14.6301L19.87 14.5501C19.2487 14.1914 18.8672 13.5274 18.87 12.8101V12.3101C18.8672 11.5927 19.2487 10.9287 19.87 10.5701L20.02 10.4801C20.9746 9.92713 21.3012 8.70565 20.75 7.75006L20.53 7.37006C19.9771 6.41545 18.7556 6.08882 17.8 6.64006L17.65 6.72006C17.0312 7.07732 16.2688 7.07732 15.65 6.72006L15.22 6.47006C14.6018 6.11316 14.2207 5.45386 14.22 4.74006V4.56006C14.22 3.45549 13.3246 2.56006 12.22 2.56006" stroke="#FAFAFA" stroke-width="2" stroke-linecap="round" stroke-linejoin="round"/>
<path d="M12 9.56006C10.3443 9.56006 9 10.9043 9 12.5601C9 14.2158 10.3443 15.5601 12 15.5601C13.6557 15.5601 15 14.2158 15 12.5601C15 10.9043 13.6557 9.56006 12 9.56006" stroke="#FAFAFA" stroke-width="2" stroke-linecap="round" stroke-linejoin="round"/>
</svg>
