<svg width="25" height="25" viewBox="0 0 25 25" fill="none" xmlns="http://www.w3.org/2000/svg">
<path d="M18.98 2.56006C17.3242 2.56006 15.98 3.90431 15.98 5.56006C15.98 7.2158 17.3242 8.56006 18.98 8.56006C20.6357 8.56006 21.98 7.2158 21.98 5.56006C21.98 3.90431 20.6357 2.56006 18.98 2.56006" stroke="#FAFAFA" stroke-width="2" stroke-linecap="round" stroke-linejoin="round"/>
<path d="M6.97998 9.56006C5.32424 9.56006 3.97998 10.9043 3.97998 12.5601C3.97998 14.2158 5.32424 15.5601 6.97998 15.5601C8.63573 15.5601 9.97998 14.2158 9.97998 12.5601C9.97998 10.9043 8.63573 9.56006 6.97998 9.56006" stroke="#FAFAFA" stroke-width="2" stroke-linecap="round" stroke-linejoin="round"/>
<path d="M18.98 16.5601C17.3242 16.5601 15.98 17.9043 15.98 19.5601C15.98 21.2158 17.3242 22.5601 18.98 22.5601C20.6357 22.5601 21.98 21.2158 21.98 19.5601C21.98 17.9043 20.6357 16.5601 18.98 16.5601" stroke="#FAFAFA" stroke-width="2" stroke-linecap="round" stroke-linejoin="round"/>
<path d="M9.56998 14.0701L16.4 18.0501M16.39 7.07006L9.56998 11.0501" stroke="#FAFAFA" stroke-width="2" stroke-linecap="round" stroke-linejoin="round"/>
</svg>
