<svg width="21" height="21" viewBox="0 0 21 21" fill="none" xmlns="http://www.w3.org/2000/svg">
<path d="M16.0384 5.92342V3.42342C16.0384 2.96349 15.6649 2.59009 15.205 2.59009H4.37168C3.45183 2.59009 2.70502 3.3369 2.70502 4.25675C2.70502 5.17661 3.45183 5.92342 4.37168 5.92342H16.8717C17.3316 5.92342 17.705 6.29683 17.705 6.75675V10.0901H15.205C14.2852 10.0901 13.5384 10.8369 13.5384 11.7568C13.5384 12.6766 14.2852 13.4234 15.205 13.4234H17.705C18.1649 13.4234 18.5384 13.05 18.5384 12.5901V10.9234C18.5384 10.4635 18.1649 10.0901 17.705 10.0901" stroke="white" stroke-width="1.66667" stroke-linecap="round" stroke-linejoin="round"/>
<path d="M2.70502 4.25675V15.9234C2.70502 16.8433 3.45183 17.5901 4.37168 17.5901H16.8717C17.3316 17.5901 17.705 17.2167 17.705 16.7568V13.4234" stroke="white" stroke-width="1.66667" stroke-linecap="round" stroke-linejoin="round"/>
</svg>
